Years after a life-changing car accident that left her paralyzed, a wheelchair-bound woman (Renée Zellweger) embarks on a cross-country journey to reconnect with her long-lost son, accompanied by a friend (Forest Whitaker) who won't let her wallow in self-pity. She used to be a singer, but lately, she's lost her voice. Maybe facing her emotional demons will bring music back into her life. Olivier Dahan (La Vie en Rose) writes and directs.

•Renee Zellweger
•Forest Whitaker
•Nick Nolte
•Madeline Zima as Billie
•Elias Koteas as Dean
•Andrea Powell
•Annie Parisse

X6W8Sip8.png
Video
ID : 1
Format : AVC
Format/Info : Advanced Video Codec
Format profile : Main@L3.0
Format settings, CABAC : Yes
Format settings, ReFrames : 2 frames
Codec ID : avc1
Codec ID/Info : Advanced Video Coding
Duration : 1h 41mn
Bit rate mode : Variable
Bit rate : 944 Kbps
Width : 720 pixels
Height : 462 pixels
Display aspect ratio : 16:9
Frame rate mode : Variable
Frame rate : 23.976 fps
Minimum frame rate : 19.965 fps
Maximum frame rate : 29.970 fps
Color space : YUV
Chroma subsampling : 4:2:0
Bit depth : 8 bits
Scan type : Progressive
Bits/(Pixel*Frame) : 0.118
Stream size : 688 MiB (85%)
Writing library : x264 core 79

Audio
ID : 2
Format : AAC
Format/Info : Advanced Audio Codec
Format version : Version 4
Format profile : LC
Codec ID : 40
Duration : 1h 41mn
Bit rate mode : Variable
Bit rate : 160 Kbps
Maximum bit rate : 236 Kbps
Channel(s) : 2 channels
Channel positions : Front: L R
Sampling rate : 48.0 KHz
Compression mode : Lossy
Stream size : 117 MiB (14%)
Language : English